<?xml version="1.0" encoding="iso-8859-1"?>
<!-- Generator: Adobe Illustrator 19.0.0, SVG Export Plug-In . SVG Version: 6.00 Build 0)  -->
<svg version="1.1" id="Layer_1" xmlns="http://www.w3.org/2000/svg" xmlns:xlink="http://www.w3.org/1999/xlink" x="0px" y="0px"
	 viewBox="0 0 512 512" style="enable-background:new 0 0 512 512;" xml:space="preserve">
<polyline style="fill:#B3B3B3;" points="119.967,415.095 0,415.095 0,132.615 119.967,132.615 "/>
<polyline style="fill:#999999;" points="8.914,415.095 0,415.095 0,132.615 8.914,132.615 "/>
<circle style="fill:#F76B4F;" cx="59.083" cy="190.323" r="31.73"/>
<circle style="fill:#F9C573;" cx="59.083" cy="273.826" r="31.73"/>
<g>
	<path style="fill:#808080;" d="M59.083,311.022c-20.513,0-37.2-16.688-37.2-37.2c0-20.513,16.688-37.2,37.2-37.2
		s37.2,16.688,37.2,37.2S79.595,311.022,59.083,311.022z M59.083,247.563c-14.479,0-26.259,11.78-26.259,26.259
		c0,14.479,11.78,26.259,26.259,26.259s26.259-11.78,26.259-26.259C85.342,259.343,73.561,247.563,59.083,247.563z"/>
	<path style="fill:#808080;" d="M59.083,227.526c-20.513,0-37.2-16.688-37.2-37.2s16.688-37.2,37.2-37.2s37.2,16.688,37.2,37.2
		S79.595,227.526,59.083,227.526z M59.083,164.067c-14.479,0-26.259,11.78-26.259,26.259c0,14.479,11.78,26.259,26.259,26.259
		s26.259-11.78,26.259-26.259C85.342,175.847,73.561,164.067,59.083,164.067z"/>
</g>
<circle style="fill:#90BC42;" cx="59.083" cy="357.318" r="31.73"/>
<path style="fill:#808080;" d="M59.083,394.519c-20.513,0-37.2-16.688-37.2-37.2c0-20.513,16.688-37.2,37.2-37.2
	s37.2,16.688,37.2,37.2C96.283,377.831,79.595,394.519,59.083,394.519z M59.083,331.06c-14.479,0-26.259,11.78-26.259,26.259
	s11.78,26.259,26.259,26.259s26.259-11.78,26.259-26.259S73.561,331.06,59.083,331.06z"/>
<g>
	<rect x="404.978" y="168.779" style="fill:#999999;" width="16.412" height="102.071"/>
	<path style="fill:#999999;" d="M319.998,378.19h63.536c0-7.834,3.173-14.924,8.315-20.055l-0.011-0.011l-62.168-21.018
		C323.215,350.005,319.998,364.098,319.998,378.19z"/>
	<rect x="403.698" y="406.565" style="fill:#999999;" width="16.412" height="63.525"/>
	<path style="fill:#999999;" d="M503.806,378.19H440.27c0-7.834-3.173-14.924-8.315-20.055l0.011-0.011l62.168-21.018
		C500.589,350.005,503.806,364.098,503.806,378.19z"/>
	<path style="fill:#999999;" d="M431.955,358.135c-5.131-5.142-12.221-8.315-20.055-8.315c-15.668,0-28.371,12.703-28.371,28.371
		s12.703,28.371,28.371,28.371s28.371-12.703,28.371-28.371C440.27,370.356,437.097,363.266,431.955,358.135z"/>
</g>
<g>
	<path style="fill:#4D4D4D;" d="M411.901,414.766c-20.169,0-36.578-16.409-36.578-36.577c0-20.169,16.409-36.577,36.578-36.577
		c9.775,0,18.957,3.806,25.857,10.719c6.913,6.901,10.719,16.083,10.719,25.857C448.476,398.359,432.069,414.766,411.901,414.766z
		 M411.901,358.025c-11.12,0-20.166,9.046-20.166,20.165c0,11.118,9.046,20.165,20.166,20.165c11.118,0,20.165-9.046,20.165-20.165
		c0-5.386-2.097-10.446-5.906-14.247c-0.004-0.004-0.009-0.009-0.013-0.013C422.347,360.123,417.288,358.025,411.901,358.025z"/>
	<path style="fill:#4D4D4D;" d="M411.901,478.29c-55.195,0-100.099-44.905-100.099-100.099s44.904-100.099,100.099-100.099
		c26.749,0,51.88,10.419,70.761,29.337C501.581,326.31,512,351.441,512,378.191C512,433.385,467.096,478.29,411.901,478.29z
		 M411.901,294.503c-46.146,0-83.687,37.543-83.687,83.687s37.543,83.687,83.687,83.687s83.687-37.543,83.687-83.687
		c0-22.363-8.709-43.37-24.525-59.152c-0.004-0.004-0.008-0.009-0.012-0.012C455.27,303.213,434.264,294.503,411.901,294.503z"/>
</g>
<circle style="fill:#F76B4F;" cx="413.731" cy="128.855" r="64.006"/>
<polyline style="fill:#E6E6E6;" points="374.892,113.162 451.481,113.162 451.481,144.537 374.892,144.537 "/>
<g>
	<path style="fill:#E0B394;" d="M109.454,237.141c-13.567-0.602-24.366-11.795-24.366-25.504c0-14.092,11.423-25.526,25.526-25.526
		c1.269,0,2.516,0.088,3.742,0.274"/>
	<path style="fill:#E0B394;" d="M337.928,237.141c13.567-0.602,24.377-11.795,24.377-25.504c0-14.092-11.434-25.526-25.537-25.526
		c-1.269,0-2.527,0.098-3.742,0.274"/>
</g>
<path style="fill:#E2AF66;" d="M275.293,329.627H172.108c-37.371,0-67.667,30.295-67.667,67.667v99.326h238.519v-99.326
	C342.96,359.922,312.664,329.627,275.293,329.627z"/>
<path style="fill:#E0B394;" d="M271.981,229.213v100.602c0,26.663-21.618,48.28-48.28,48.28c-26.67,0-48.28-21.618-48.28-48.28
	V216.084L271.981,229.213z"/>
<path style="fill:#F7CBA4;" d="M186.77,347.478l-44.913-32.631c-23.734-17.243-36.573-45.758-33.751-74.959l7.79-80.613
	c5.366-55.521,52.022-97.887,107.802-97.887l0,0c55.779,0,102.436,42.366,107.802,97.887l7.79,80.613
	c2.822,29.201-10.017,57.715-33.751,74.959l-44.913,32.631C238.605,363.475,208.789,363.475,186.77,347.478z"/>
<path style="fill:#E8BA97;" d="M136.055,255.774c-0.755,12.768,3.403,25.329,11.631,35.121l46.941,57.682
	c2.451,2.921,5.23,5.372,8.239,7.331c-5.646-1.969-11.073-4.792-16.095-8.436l-44.914-32.627
	c-23.732-17.243-36.566-45.756-33.743-74.958l7.779-80.615c5.317-54.98,51.117-97.06,106.185-97.858
	c-33.918,0.821-72.325,32.791-74.327,66.84L136.055,255.774z"/>
<path style="fill:#666666;" d="M327.424,138.525c34.902-8.884,57.058-22.167,57.058-37.014c0-26.762-71.982-86.129-160.781-86.129
	S62.909,74.748,62.909,101.51c0,14.847,22.167,28.13,57.058,37.014H327.424z"/>
<g>
	<path style="fill:#4D4D4D;" d="M156.62,138.525c6.28,15.646,32.955,27.397,64.892,27.397s58.612-11.751,64.892-27.397
		l-65.605-11.96L156.62,138.525z"/>
	<path style="fill:#4D4D4D;" d="M112.165,106.027c0-24.182,59.855-79.496,136.7-89.068c-8.199-1.021-16.603-1.579-25.165-1.579
		c-88.799,0-160.792,59.367-160.792,86.129c0,14.847,22.167,28.13,57.058,37.014h50.33
		C135.405,129.64,112.165,120.874,112.165,106.027z"/>
</g>
<path style="fill:#F9C573;" d="M335.224,106.027c-2.604,10.832-5.197,21.664-7.801,32.495H119.966
	c-2.604-10.832-5.197-21.664-7.801-32.495c23.885-5.733,48.109-9.606,72.453-11.598C234.958,90.295,285.802,94.157,335.224,106.027z
	"/>
<path style="fill:#E2AF66;" d="M184.618,94.43v44.093h-64.652c-2.604-10.832-5.197-21.664-7.801-32.495
	C136.05,100.294,160.274,96.421,184.618,94.43z"/>
<g>
	<rect x="182.664" y="41.642" style="fill:#333333;" width="16.412" height="16.412"/>
	<rect x="199.076" y="58.054" style="fill:#333333;" width="16.412" height="16.412"/>
	<rect x="215.487" y="41.642" style="fill:#333333;" width="16.412" height="16.412"/>
	<rect x="231.899" y="58.054" style="fill:#333333;" width="16.412" height="16.412"/>
	<rect x="248.311" y="41.642" style="fill:#333333;" width="16.412" height="16.412"/>
</g>
<path style="fill:#F9C573;" d="M296.995,367.303L223.7,480.381l-73.044-112.673C191.631,406.725,256.184,406.582,296.995,367.303z"
	/>
<path style="fill:#666666;" d="M296.995,367.303l16.74-25.821c17.517,10.635,29.224,29.88,29.224,51.861v103.274H223.7H104.441
	V393.344c0-21.981,11.696-41.227,29.213-51.861l17.003,26.226L223.7,480.381L296.995,367.303z"/>
<path style="fill:#4D4D4D;" d="M151.98,369.754c-3.753,8.414-5.843,17.725-5.843,27.539v99.324h-41.697v-99.324
	c0-23.108,11.587-43.513,29.268-55.724l16.948,26.139L151.98,369.754z"/>
<rect x="268.323" y="445.581" style="fill:#F9C573;" width="52.518" height="26.259"/>
<path style="fill:#F2F2F2;" d="M266.529,276.923c0,0-0.624,1.532-1.937,3.95c-0.317,0.624-0.689,1.28-1.105,1.991
	c-0.492,0.7-1.061,1.411-1.674,2.21c-0.613,0.799-1.313,1.608-2.057,2.506c-0.263,0.339-0.547,0.624-0.853,0.919
	c-0.109,0.109-0.23,0.219-0.35,0.328c-0.427,0.394-0.864,0.81-1.313,1.225c-0.897,0.842-1.871,1.674-2.888,2.549
	c-1.072,0.788-2.221,1.532-3.403,2.341c-0.591,0.405-1.204,0.799-1.827,1.193c-0.624,0.372-1.291,0.678-1.969,1.018
	c-1.335,0.678-2.724,1.335-4.158,1.991c-2.954,1.007-6.029,2.188-9.311,2.681c-3.239,0.755-6.619,0.875-9.989,1.039
	c-3.37-0.164-6.751-0.274-9.989-1.028c-3.282-0.492-6.357-1.674-9.311-2.681c-1.433-0.646-2.823-1.302-4.169-1.98
	c-0.667-0.339-1.335-0.646-1.969-1.018c-0.613-0.405-1.225-0.788-1.816-1.193c-1.182-0.81-2.341-1.565-3.414-2.341
	c-1.018-0.875-1.98-1.718-2.888-2.549c-0.449-0.427-0.875-0.832-1.302-1.236c-0.153-0.142-0.306-0.284-0.46-0.427
	c-0.263-0.263-0.514-0.514-0.733-0.81c-0.711-0.864-1.4-1.663-2.002-2.451c-0.591-0.799-1.171-1.499-1.652-2.199
	c-0.438-0.744-0.842-1.422-1.182-2.046c-1.368-2.495-1.937-3.983-1.937-3.983s1.619,0.492,4.114,1.499
	c0.635,0.241,1.291,0.536,2.024,0.832c0.777,0.23,1.576,0.525,2.429,0.81c0.864,0.284,1.729,0.635,2.648,0.963
	c0.908,0.35,1.937,0.58,2.954,0.886c1.018,0.295,2.035,0.656,3.096,0.974c1.105,0.241,2.21,0.525,3.348,0.799
	c0.569,0.131,1.127,0.295,1.696,0.449c0.58,0.131,1.182,0.208,1.772,0.328c1.193,0.208,2.385,0.449,3.578,0.722
	c2.484,0.23,4.934,0.777,7.495,0.875c2.527,0.328,5.11,0.241,7.67,0.394c2.571-0.153,5.153-0.055,7.681-0.383
	c2.56-0.088,5.011-0.646,7.495-0.875c1.193-0.263,2.385-0.503,3.578-0.711c0.591-0.12,1.193-0.197,1.772-0.328
	c0.569-0.164,1.138-0.317,1.696-0.449c1.138-0.274,2.243-0.569,3.348-0.799c1.072-0.317,2.09-0.678,3.107-0.974
	c1.007-0.306,2.057-0.547,2.932-0.886c0.897-0.306,1.74-0.646,2.593-0.908c0.842-0.284,1.63-0.569,2.407-0.799
	c0.766-0.328,1.444-0.646,2.09-0.897C264.943,277.383,266.529,276.923,266.529,276.923z"/>
<g>
	<path style="fill:#4D4D4D;" d="M258.903,288.499c-0.109,0.109-0.23,0.219-0.35,0.328c-0.427,0.394-0.864,0.81-1.313,1.225
		c-0.897,0.842-1.871,1.674-2.888,2.549c-1.072,0.788-2.221,1.532-3.403,2.341c-0.591,0.405-1.204,0.799-1.827,1.193
		c-0.624,0.372-1.291,0.678-1.969,1.018c-1.335,0.678-2.724,1.335-4.158,1.991c-2.954,1.007-6.029,2.188-9.311,2.681
		c-3.239,0.755-6.619,0.875-9.989,1.039c-3.37-0.164-6.751-0.274-9.989-1.028c-3.282-0.492-6.357-1.674-9.311-2.681
		c-1.433-0.646-2.823-1.302-4.169-1.98c-0.667-0.339-1.335-0.646-1.969-1.018c-0.613-0.405-1.225-0.788-1.816-1.193
		c-1.182-0.81-2.341-1.565-3.414-2.341c-1.018-0.875-1.98-1.718-2.888-2.549c-0.449-0.427-0.875-0.832-1.302-1.236
		c-0.153-0.142-0.306-0.284-0.46-0.427c0.35,0.12,0.7,0.241,1.061,0.361c0.864,0.284,1.729,0.624,2.648,0.952
		c0.908,0.361,1.937,0.591,2.954,0.897c1.018,0.295,2.035,0.646,3.096,0.974c1.105,0.23,2.21,0.525,3.348,0.799
		c0.569,0.131,1.127,0.284,1.696,0.438c0.58,0.131,1.182,0.208,1.772,0.328c1.193,0.208,2.385,0.46,3.578,0.722
		c2.484,0.241,4.934,0.788,7.495,0.875c2.527,0.339,5.11,0.241,7.67,0.405c2.571-0.153,5.153-0.055,7.681-0.394
		c2.56-0.087,5.011-0.635,7.495-0.864c1.193-0.263,2.385-0.514,3.578-0.722c0.591-0.12,1.193-0.197,1.772-0.328
		c0.569-0.153,1.138-0.306,1.696-0.438c1.138-0.274,2.243-0.569,3.348-0.799c1.072-0.328,2.09-0.689,3.107-0.974
		c1.007-0.306,2.057-0.558,2.932-0.886c0.897-0.317,1.74-0.646,2.593-0.919C258.236,288.729,258.575,288.609,258.903,288.499z"/>
	<path style="fill:#4D4D4D;" d="M174.991,240.273c-4.532,0-8.206-3.674-8.206-8.206v-13.125c0-4.532,3.674-8.206,8.206-8.206
		c4.532,0,8.206,3.674,8.206,8.206v13.125C183.197,236.598,179.522,240.273,174.991,240.273z"/>
</g>
<g>
	<path style="fill:#666666;" d="M253.643,187.212c0,0,0.022-0.218,0.095-0.592c0.084-0.362,0.17-0.934,0.353-1.582
		c0.082-0.335,0.188-0.684,0.31-1.068c0.159-0.39,0.372-0.781,0.598-1.225c0.224-0.446,0.508-0.887,0.805-1.383
		c0.3-0.503,0.658-0.885,1.024-1.371c0.372-0.467,0.791-0.919,1.229-1.405c0.463-0.439,0.965-0.871,1.499-1.305
		c1.045-0.92,2.322-1.585,3.652-2.325c1.376-0.582,2.837-1.213,4.402-1.506c1.549-0.403,3.174-0.498,4.794-0.573
		c1.62,0.074,3.246,0.161,4.797,0.561c1.566,0.289,3.027,0.923,4.405,1.501c1.332,0.739,2.609,1.403,3.655,2.324
		c0.533,0.435,1.036,0.869,1.5,1.305c0.438,0.487,0.855,0.943,1.229,1.407c0.361,0.484,0.736,0.881,1.011,1.364
		c0.276,0.481,0.543,0.913,0.759,1.349c0.216,0.438,0.424,0.823,0.582,1.211c0.143,0.405,0.27,0.771,0.364,1.118
		c0.208,0.671,0.294,1.247,0.374,1.608c0.07,0.373,0.085,0.585,0.085,0.585s-0.226-0.005-0.609-0.043
		c-0.372-0.048-0.95-0.072-1.588-0.165c-0.33-0.034-0.667-0.095-1.038-0.144c-0.395-0.019-0.784-0.073-1.208-0.106
		c-0.83-0.088-1.697-0.218-2.65-0.255c-0.468-0.031-0.922-0.098-1.397-0.138c-0.491-0.007-0.976-0.032-1.457-0.068
		c-0.943-0.123-1.968-0.05-2.92-0.17c-1.001,0.036-1.96-0.086-2.952-0.056c-0.976-0.073-1.963,0.004-2.942-0.065
		c-0.979,0.067-1.966-0.019-2.944,0.053c-0.993-0.035-1.952,0.092-2.955,0.051c-0.953,0.118-1.98,0.045-2.923,0.169
		c-0.481,0.036-0.966,0.062-1.458,0.068c-0.475,0.039-0.927,0.112-1.397,0.14c-0.972,0.053-1.779,0.144-2.59,0.214
		c-0.426,0.033-0.824,0.063-1.193,0.091c-0.393,0.071-0.752,0.15-1.093,0.195c-0.662,0.117-1.241,0.144-1.608,0.191
		C253.862,187.212,253.643,187.212,253.643,187.212z"/>
	<path style="fill:#666666;" d="M156.229,187.212c0,0,0.022-0.218,0.095-0.592c0.084-0.362,0.17-0.934,0.353-1.582
		c0.082-0.335,0.188-0.684,0.31-1.068c0.159-0.39,0.372-0.781,0.598-1.225c0.224-0.446,0.508-0.887,0.805-1.383
		c0.3-0.503,0.658-0.885,1.024-1.371c0.372-0.467,0.791-0.919,1.229-1.405c0.463-0.439,0.965-0.871,1.499-1.305
		c1.045-0.92,2.322-1.585,3.652-2.325c1.376-0.582,2.837-1.213,4.402-1.506c1.549-0.403,3.174-0.498,4.794-0.573
		c1.62,0.074,3.246,0.161,4.797,0.561c1.566,0.289,3.027,0.923,4.405,1.501c1.332,0.739,2.609,1.403,3.655,2.324
		c0.533,0.435,1.036,0.869,1.5,1.305c0.438,0.487,0.855,0.943,1.229,1.407c0.361,0.484,0.736,0.881,1.011,1.364
		c0.276,0.481,0.543,0.913,0.759,1.349c0.216,0.438,0.425,0.823,0.582,1.211c0.143,0.405,0.27,0.771,0.364,1.118
		c0.208,0.671,0.294,1.247,0.374,1.608c0.07,0.373,0.085,0.585,0.085,0.585s-0.226-0.005-0.609-0.043
		c-0.372-0.048-0.95-0.072-1.588-0.165c-0.33-0.034-0.667-0.095-1.038-0.144c-0.395-0.019-0.784-0.073-1.208-0.106
		c-0.83-0.088-1.697-0.218-2.65-0.255c-0.468-0.031-0.922-0.098-1.397-0.138c-0.491-0.007-0.976-0.032-1.457-0.068
		c-0.943-0.123-1.968-0.05-2.92-0.17c-1.001,0.036-1.96-0.086-2.952-0.056c-0.976-0.073-1.963,0.004-2.942-0.065
		c-0.979,0.067-1.966-0.019-2.944,0.053c-0.993-0.035-1.952,0.092-2.955,0.051c-0.953,0.118-1.98,0.045-2.923,0.169
		c-0.481,0.036-0.966,0.062-1.458,0.068c-0.475,0.039-0.927,0.112-1.397,0.14c-0.972,0.053-1.779,0.144-2.59,0.214
		c-0.426,0.033-0.824,0.063-1.193,0.091c-0.393,0.071-0.752,0.15-1.093,0.195c-0.662,0.117-1.241,0.144-1.608,0.191
		C156.447,187.212,156.229,187.212,156.229,187.212z"/>
</g>
<path style="fill:#4D4D4D;" d="M272.404,240.273c-4.532,0-8.206-3.674-8.206-8.206v-13.125c0-4.532,3.674-8.206,8.206-8.206
	s8.206,3.674,8.206,8.206v13.125C280.61,236.598,276.935,240.273,272.404,240.273z"/>
<path style="fill:#E0B394;" d="M236.279,206.906v38.841c0,6.949-5.634,12.582-12.582,12.582l0,0
	c-6.949,0-12.582-5.634-12.582-12.582v-38.841H236.279z"/>
<g>
</g>
<g>
</g>
<g>
</g>
<g>
</g>
<g>
</g>
<g>
</g>
<g>
</g>
<g>
</g>
<g>
</g>
<g>
</g>
<g>
</g>
<g>
</g>
<g>
</g>
<g>
</g>
<g>
</g>
</svg>
