<svg height="512pt" viewBox="-56 0 512 512.00013" width="512pt" xmlns="http://www.w3.org/2000/svg"><path d="m398.976562 194.046875c-4.785156-258.726563-394.132812-258.730469-398.9179682 0-.0390626 2.148437-.0585938 4.300781-.0585938 6.460937 0 138.167969 81.753906 257.230469 199.519531 311.492188 117.761719-54.261719 199.515625-173.324219 199.515625-311.492188 0-2.160156-.019531-4.3125-.058594-6.460937zm0 0" fill="#fc315f"/><path d="m199.523438 512c-117.769532-54.261719-199.523438-173.316406-199.523438-311.496094 0-2.152344.0195312-4.316406.0625-6.457031 2.371094-128.480469 99.589844-193.160156 197.453125-194.0390625-84.75 1.0039065-168.863281 65.6835935-170.921875 194.0390625-.042969 2.140625-.054688 4.304687-.054688 6.457031 0 138.179688 70.875 257.234375 172.984376 311.496094zm0 0" fill="#d61e4f"/><path d="m349.464844 206.941406c0 54.292969-28.851563 101.847656-72.078125 128.136719-.574219.363281-1.160157.710937-1.746094 1.054687-15.890625 9.394532-33.664063 15.933594-52.609375 18.914063-7.660156 1.210937-15.507812 1.835937-23.511719 1.835937-15.808593 0-31.042969-2.445312-45.355469-6.980468-10.847656-3.4375-21.152343-8.074219-30.773437-13.769532-.710937-.417968-1.421875-.847656-2.121094-1.285156-43.019531-26.332031-71.703125-73.769531-71.703125-127.90625 0-82.820312 67.136719-149.953125 149.953125-149.953125 8.003907 0 15.851563.625 23.511719 1.839844 71.648438 11.273437 126.433594 73.296875 126.433594 148.113281zm0 0" fill="#bbd8dd"/><path d="m349.464844 206.941406c0 55.023438-29.632813 103.121094-73.824219 129.191406-15.890625 9.394532-33.664063 15.933594-52.609375 18.914063-18.953125-2.980469-36.726562-9.519531-52.621094-18.914063-44.1875-26.070312-73.832031-74.167968-73.832031-129.191406 0-74.824218 54.804687-136.839844 126.453125-148.113281 71.648438 11.273437 126.433594 73.296875 126.433594 148.113281zm0 0" fill="#e2eff2"/><path d="m277.386719 335.078125c-.574219.363281-1.160157.710937-1.746094 1.054687-15.890625 9.394532-33.664063 15.933594-52.609375 18.914063-7.660156 1.210937-15.507812 1.835937-23.511719 1.835937-15.808593 0-31.042969-2.445312-45.355469-6.980468-10.847656-3.4375-21.152343-8.074219-30.773437-13.769532-.710937-.417968-1.421875-.847656-2.121094-1.285156 3.824219-13.53125 11.054688-25.621094 20.71875-35.285156 14.660157-14.671875 34.941407-23.730469 57.3125-23.730469 6.113281 0 12.078125.679688 17.804688 1.964844.210937.03125.410156.082031.609375.132813 14.992187 3.480468 28.386718 11.128906 38.898437 21.632812 9.707031 9.726562 16.96875 21.890625 20.773438 35.515625zm0 0" fill="#fcbb65"/><path d="m277.386719 335.078125c-.574219.363281-1.160157.710937-1.746094 1.054687-15.890625 9.394532-33.664063 15.933594-52.609375 18.914063-7.660156 1.210937-15.507812 1.835937-23.511719 1.835937-15.808593 0-31.042969-2.445312-45.355469-6.980468 1.660157-19.601563 10.300782-37.207032 23.425782-50.339844 10.679687-10.660156 24.28125-18.371094 39.515625-21.765625.210937.03125.410156.082031.609375.132813 14.992187 3.480468 28.386718 11.128906 38.898437 21.632812 9.707031 9.726562 16.96875 21.890625 20.773438 35.515625zm0 0" fill="#fed563"/><path d="m280.355469 177.121094v55.195312c0 39.5-28.257813 72.398438-65.660157 79.589844-4.980468.960938-10.132812 1.460938-15.398437 1.460938-44.761719 0-81.050781-36.285157-81.050781-81.050782v-55.195312c0-44.765625 36.289062-81.054688 81.050781-81.054688 5.265625 0 10.417969.5 15.398437 1.460938 16.210938 3.113281 30.699219 11.058594 41.917969 22.277344 14.667969 14.671874 23.742188 34.933593 23.742188 57.316406zm0 0" fill="#ffd0a6"/><path d="m215.101562 311.820312c-.136718.039063-.269531.0625-.402343.085938-4.988281.960938-10.136719 1.457031-15.394531 1.457031-44.769532 0-81.054688-36.285156-81.054688-81.042969v-55.199218c0-44.761719 36.285156-81.058594 81.054688-81.058594 5.257812 0 10.40625.511719 15.394531 1.46875.121093.023438.253906.050781.375.074219-37.207031 7.34375-65.261719 40.15625-65.261719 79.515625v55.199218c0 39.367188 28.066406 72.167969 65.289062 79.5zm0 0" fill="#e8b182"/><path d="m199.300781 270.71875c-9.789062 0-19.582031-3.726562-27.03125-11.179688-2.609375-2.609374-2.609375-6.835937 0-9.445312 2.605469-2.605469 6.835938-2.605469 9.441407 0 9.699218 9.703125 25.480468 9.703125 35.179687 0 2.605469-2.605469 6.835937-2.605469 9.441406 0 2.609375 2.609375 2.609375 6.835938 0 9.445312-7.449219 7.453126-17.242187 11.179688-27.03125 11.179688zm0 0" fill="#e8b182"/><path d="m280.355469 177.121094v11.96875c-95.957031-.125-127.855469-39.367188-127.855469-39.367188 0 16.300782-16.300781 33.503906-34.25 39.367188v-11.96875c0-44.765625 36.285156-81.054688 81.046875-81.054688 5.265625 0 10.417969.5 15.398437 1.460938 16.210938 3.113281 30.699219 11.058594 41.921876 22.277344 14.664062 14.671874 23.738281 34.933593 23.738281 57.316406zm0 0" fill="#5b5b68"/><g fill="#40404c"><path d="m215.0625 97.605469c-28.6875 5.671875-51.945312 26.464843-61.074219 53.742187-1.019531-1.042968-1.492187-1.625-1.492187-1.625 0 16.300782-16.304688 33.503906-34.25 39.367188v-11.96875c0-44.757813 36.285156-81.058594 81.046875-81.058594 5.269531 0 10.414062.511719 15.394531 1.46875.121094.027344.253906.050781.375.074219zm0 0"/><path d="m163.992188 233.574219c-3.6875 0-6.675782-2.988281-6.675782-6.675781v-19.925782c0-3.6875 2.988282-6.675781 6.675782-6.675781s6.675781 2.988281 6.675781 6.675781v19.925782c0 3.6875-2.988281 6.675781-6.675781 6.675781zm0 0"/><path d="m234.613281 233.574219c-3.6875 0-6.675781-2.988281-6.675781-6.675781v-19.925782c0-3.6875 2.988281-6.675781 6.675781-6.675781s6.675781 2.988281 6.675781 6.675781v19.925782c0 3.6875-2.988281 6.675781-6.675781 6.675781zm0 0"/></g></svg>