<?xml version="1.0" encoding="iso-8859-1"?>
<!-- Generator: Adobe Illustrator 19.0.0, SVG Export Plug-In . SVG Version: 6.00 Build 0)  -->
<svg xmlns="http://www.w3.org/2000/svg" xmlns:xlink="http://www.w3.org/1999/xlink" version="1.1" id="Layer_1" x="0px" y="0px" viewBox="0 0 490 490" style="enable-background:new 0 0 490 490;" xml:space="preserve" width="512" height="512">
<g>
	<path style="fill:#3B9CB7;" d="M490,245c0,27.94-4.68,54.8-13.3,79.81c-4.98,14.49-11.28,28.35-18.77,41.46   c-4.93,8.65-10.38,16.96-16.29,24.9c-3.13,4.21-6.4,8.31-9.79,12.3c-1.95,2.29-3.93,4.54-5.96,6.76   c-17.74,19.42-38.59,35.98-61.74,48.89C328.89,478.79,288.25,490,245,490c-43.26,0-83.9-11.21-119.17-30.89   c-23.18-12.92-44.03-29.5-61.79-48.95c-2.01-2.19-3.97-4.43-5.89-6.69c-3.4-4-6.67-8.1-9.8-12.31   c-5.89-7.91-11.32-16.2-16.23-24.81c-7.5-13.13-13.83-27.01-18.82-41.53v-0.01C4.68,299.79,0,272.94,0,245   c0-16.74,1.68-33.08,4.88-48.87C27.53,84.23,126.43,0,245,0s217.47,84.23,240.12,196.13C488.32,211.92,490,228.26,490,245z"/>
	<path style="fill:#304F75;" d="M490,245c0,27.94-4.68,54.8-13.3,79.81c-4.98,14.49-11.28,28.35-18.77,41.46   c-4.93,8.65-10.38,16.96-16.29,24.9c-3.13,4.21-6.4,8.31-9.79,12.3c-1.95,2.29-3.93,4.54-5.96,6.76   c-17.74,19.42-38.59,35.98-61.74,48.89C328.89,478.79,288.25,490,245,490c-43.26,0-83.9-11.21-119.17-30.89   c-23.18-12.92-44.03-29.5-61.79-48.95c-2.01-2.19-3.97-4.43-5.89-6.69c-3.4-4-6.67-8.1-9.8-12.31   c-5.89-7.91-11.32-16.2-16.23-24.81c-7.5-13.13-13.83-27.01-18.82-41.53v-0.01C4.68,299.79,0,272.94,0,245   c0-16.74,1.68-33.08,4.88-48.87h480.24C488.32,211.92,490,228.26,490,245z"/>
	<path style="fill:#151A1C;" d="M310.521,352.963c-43.682-1.465-87.365-1.465-131.047,0c-14.958,0.502-27.207,7.773-28.624,17.169   c-2.234,14.82-2.234,29.64,0,44.46c1.416,9.396,13.666,16.667,28.623,17.169c43.682,1.465,87.365,1.465,131.047,0   c14.958-0.502,27.207-7.773,28.624-17.169c2.234-14.82,2.234-29.64,0-44.46C337.728,360.736,325.478,353.464,310.521,352.963z"/>
	<g>
		<g>
			<path style="fill:#151A1C;" d="M126.53,432.48c-0.03,8.88-0.26,17.75-0.7,26.63c-30.4-16.95-56.81-40.19-77.48-67.95     c3.13-6.39,9.52-10.89,17.01-11.45c13.74-1.04,27.48-1.04,41.23,0c10.28,0.77,18.49,8.97,19.05,19.27     C126.27,410.15,126.57,421.31,126.53,432.48z"/>
		</g>
		<g>
			<path style="fill:#151A1C;" d="M441.64,391.17c-20.67,27.76-47.09,51-77.49,67.95c-0.99-20.04-0.92-40.09,0.19-60.14     c0.57-10.3,8.77-18.5,19.06-19.27c13.74-1.04,27.48-1.04,41.22,0C432.12,380.27,438.51,384.78,441.64,391.17z"/>
		</g>
	</g>
	<path style="fill:#151A1C;" d="M289.255,7.666c-26.618-1.033-53.236-1.033-79.853,0c-4.256,0.165-8.117,2.583-10.129,6.338   c-8.284,15.458-15.159,30.599-18.318,45.246c-1.572,7.285,3.66,14.284,11.102,14.699c38.182,2.126,76.363,2.126,114.545,0   c7.441-0.414,12.673-7.413,11.102-14.699c-3.159-14.647-10.034-29.787-18.318-45.246C297.371,10.249,293.511,7.831,289.255,7.666z"/>
	<path style="fill:#FFA733;" d="M467.192,173.908h-45.885v45.611h45.885c12.595,0,22.805-10.21,22.805-22.805v0   C489.997,184.119,479.787,173.908,467.192,173.908z"/>
	<path style="fill:#FFA733;" d="M324.774,56.411H172.501c-13.009,0-23.556,10.546-23.556,23.556v6.417H348.33v-6.417   C348.33,66.957,337.783,56.411,324.774,56.411z"/>
	<path style="fill:#FFA733;" d="M22.805,173.908H68.69v45.611H22.805C10.21,219.519,0,209.309,0,196.714v0   C0,184.119,10.21,173.908,22.805,173.908z"/>
	<path style="fill:#FFFFFF;" d="M420.19,238.85c-18.58,1.18-37.16,2.16-55.73,2.95c-95.79,4.1-191.59,3.11-287.38-2.95   c-4.06-35.23,3.25-71.32,17.65-108.07c9.18-23.46,31.35-39.35,56.54-40.25c55.81-2,111.62-2.28,167.43-0.83   c9.1,0.22,18.2,0.5,27.3,0.83c25.2,0.9,47.36,16.79,56.55,40.25C416.94,167.53,424.26,203.62,420.19,238.85z"/>
	<path style="fill:#BCE6F5;" d="M364.46,241.8c-95.79,4.1-191.59,3.11-287.38-2.95c-4.06-35.23,3.25-71.32,17.65-108.07   c9.18-23.46,31.35-39.35,56.54-40.25c55.81-2,111.62-2.28,167.43-0.83c9.59,8.37,17.24,19.06,22.08,31.4   C356.81,162.05,365.94,202.33,364.46,241.8z"/>
	<path style="fill:#FFE05C;" d="M434.905,240.571l-29.803-3.433c3.486-30.265-1.975-63.27-16.693-100.898   c-7.033-17.977-23.932-30.037-43.052-30.724c-64.181-2.306-129.263-2.306-193.439,0c-19.12,0.687-36.019,12.747-43.052,30.724   c-14.719,37.628-20.18,70.632-16.693,100.898l-29.803,3.433c-4.061-35.253,2.01-72.955,18.559-115.26   c11.391-29.121,38.833-48.659,69.911-49.776c64.894-2.332,130.699-2.332,195.595,0c31.079,1.117,58.521,20.655,69.913,49.776   C432.896,167.616,438.966,205.318,434.905,240.571z"/>
	<path style="fill:#FFA733;" d="M411.236,237.826l-11.922-1.375c3.375-29.266-1.969-61.33-16.338-98.022   c-6.169-15.75-20.978-26.315-37.728-26.916c-64.108-2.3-129.116-2.3-193.223,0c-16.75,0.601-31.559,11.167-37.728,26.917   c-14.369,36.694-19.713,68.758-16.338,98.022l-11.922,1.375c-3.604-31.262,1.984-65.206,17.086-103.773   c7.914-20.205,26.939-33.76,48.472-34.533c64.39-2.311,129.69-2.311,194.082,0c21.532,0.773,40.558,14.328,48.472,34.532   C409.253,172.618,414.841,206.562,411.236,237.826z"/>
	<path style="fill:#FFE05C;" d="M476.7,324.81c-4.98,14.49-11.28,28.35-18.77,41.46c-4.93,8.65-10.38,16.96-16.29,24.9   c-3.13,4.21-6.4,8.31-9.79,12.3c-124.56,6.4-249.13,6.4-373.7,0c-3.4-4-6.67-8.1-9.8-12.31c-5.89-7.91-11.32-16.2-16.23-24.81   c-7.5-13.13-13.83-27.01-18.82-41.53v-0.01c-0.25-6.93-0.18-13.87,0.22-20.8c0.68-12.16,2.35-24.33,5.02-36.49   c0.58-2.63,1.2-5.27,1.87-7.9c1.35-5.33,3.77-10.17,7-14.33c6.92-8.93,17.56-14.71,29.34-15.32c125.5-6.49,251-6.49,376.49,0   c11.79,0.61,22.43,6.39,29.35,15.32c3.23,4.16,5.65,9,7,14.33C475.12,281.35,477.49,303.08,476.7,324.81z"/>
	<path style="fill:#FFA733;" d="M60.45,303.36c-1.92,33.66,3.39,67.33,15.91,101c-6.07-0.28-12.14-0.57-18.21-0.89   c-3.4-4-6.67-8.1-9.8-12.31c-5.89-7.91-11.32-16.2-16.23-24.81c-7.5-13.13-13.83-27.02-18.82-41.54   c-0.25-6.93-0.18-13.87,0.22-20.8c0.68-12.16,2.35-24.33,5.02-36.49c0.58-2.63,1.2-5.27,1.87-7.9   c4.26-16.77,19.07-28.75,36.34-29.65c12.08-0.62,24.16-1.19,36.24-1.69c-12.29,4.75-21.93,15.16-25.3,28.42   c-0.7,2.76-1.35,5.54-1.96,8.3C62.92,277.78,61.16,290.58,60.45,303.36z"/>
	<path style="fill:#83BDD6;" d="M457.93,366.27c-4.93,8.65-10.38,16.96-16.29,24.9c-4.93,6.62-10.19,12.98-15.75,19.06   c-105.01,1.12-210,1.25-315,0.38c-15.62-0.13-31.23-0.28-46.85-0.45c-5.54-6.06-10.78-12.4-15.69-19   c-5.89-7.91-11.32-16.2-16.23-24.81c26.27-0.33,52.54-0.62,78.81-0.83C226.6,364.57,342.26,364.82,457.93,366.27z"/>
	<path style="fill:#BCE6F5;" d="M457.93,366.27c-4.93,8.65-10.38,16.96-16.29,24.9c-4.93,6.62-10.19,12.98-15.75,19.06   c-105.01,1.12-210,1.25-315,0.38c-6.88-1.6-13.16-5.34-17.67-10.91c-6.3-7.75-6.3-15.51,0-23.27c4.52-5.58,10.81-9.32,17.71-10.91   C226.6,364.57,342.26,364.82,457.93,366.27z"/>
	<path style="fill:#FFFFFF;" d="M113.76,285.77c0,5.04-2.04,9.6-5.34,12.9c-3.3,3.3-7.86,5.34-12.9,5.34h-82   c0.68-12.16,2.35-24.33,5.02-36.49h76.98C105.59,267.52,113.76,275.69,113.76,285.77z"/>
	<path style="fill:#BCE6F5;" d="M60.422,304.01c0.012-0.217,0.016-0.433,0.028-0.65c0.663-11.94,2.256-23.898,4.752-35.84H18.54   c-2.67,12.16-4.34,24.33-5.02,36.49H60.422z"/>
	<circle style="fill:#F75454;" cx="61.633" cy="334.482" r="18.244"/>
	<g>
		<path style="fill:#FFFFFF;" d="M376.607,285.77c0,5.04,2.04,9.6,5.34,12.9c3.3,3.3,7.86,5.34,12.9,5.34h82    c-0.68-12.16-2.35-24.33-5.02-36.49h-76.98C384.777,267.52,376.607,275.69,376.607,285.77z"/>
		<circle style="fill:#F75454;" cx="428.734" cy="334.482" r="18.244"/>
	</g>
	<path style="fill:#FFE578;" d="M462.59,245.29c-6.93,8.93-17.56,14.7-29.34,15.31c-125.5,6.49-251,6.49-376.49,0   c-11.79-0.61-22.42-6.38-29.35-15.31c6.92-8.93,17.56-14.71,29.34-15.32c125.5-6.49,251-6.49,376.49,0   C445.03,230.58,455.67,236.36,462.59,245.29z"/>
	<g>
		<path style="fill:#151A1C;" d="M330.359,304.013H159.644c-6.837,0-12.38-5.543-12.38-12.38v0c0-6.837,5.543-12.38,12.38-12.38    h170.715c6.837,0,12.38,5.543,12.38,12.38v0C342.739,298.47,337.196,304.013,330.359,304.013z"/>
		<path style="fill:#151A1C;" d="M330.359,342.558H159.644c-6.837,0-12.38-5.543-12.38-12.38v0c0-6.837,5.543-12.38,12.38-12.38    h170.715c6.837,0,12.38,5.543,12.38,12.38v0C342.739,337.015,337.196,342.558,330.359,342.558z"/>
	</g>
	<g>
		<rect x="271.591" y="16.954" style="fill:#FFE05C;" width="14.842" height="14.842"/>
		<rect x="256.749" y="31.796" style="fill:#FFE05C;" width="14.842" height="14.842"/>
		<rect x="241.907" y="16.954" style="fill:#FFE05C;" width="14.842" height="14.842"/>
		<rect x="227.065" y="31.796" style="fill:#FFE05C;" width="14.842" height="14.842"/>
		<rect x="212.223" y="16.954" style="fill:#FFE05C;" width="14.842" height="14.842"/>
	</g>
</g>















</svg>
