<svg height="512pt" viewBox="0 -157 512 511" width="512pt" xmlns="http://www.w3.org/2000/svg"><path d="m388.015625 172.5h-256.03125c-2.207031 0-4-1.792969-4-4s1.792969-4 4-4h256.03125c2.207031 0 4 1.792969 4 4s-1.792969 4-4 4zm0 0" fill="#ffce54"/><path d="m231.320312 24.539062c-1.785156-.023437-5.039062-.054687-7.242187-.0625l-10.078125.085938c-2.199219.058594-3.558594-1.648438-3.039062-3.78125l4.078124-16.402344c.519532-2.136718 2.761719-3.878906 4.960938-3.878906h8c2.199219 0 4.441406 1.753906 4.96875 3.878906l3.816406 15.351563c.527344 2.136719.949219 4.136719.925782 4.449219-.023438.3125-4.605469.382812-6.390626.359374zm0 0" fill="#f6bb42"/><path d="m380 72.5h-144v-8l-8-33.761719.078125-6.238281c3.28125 0 6.488281.078125 9.59375.238281 26.328125 1.121094 45.839844 4.875 54.328125 7.761719 39.59375 13.199219 88 40 88 40zm0 0" fill="#5d9cec"/><path d="m129.59375 36.578125c28.796875-7.757813 56.328125-11.117187 80.40625-11.910156 6.3125-.238281 12.3125-.320313 18.078125-.167969l-.078125 6.238281 8 33.761719v8h-136c-1.871094-13.625 29.59375-35.921875 29.59375-35.921875zm0 0" fill="#5d9cec"/><g fill="#656d78"><path d="m164 104.5h16v16h-16zm0 0"/><path d="m180 120.5h16v16h-16zm0 0"/><path d="m196 104.5h16v16h-16zm0 0"/><path d="m212 120.5h16v16h-16zm0 0"/><path d="m228 104.5h16v16h-16zm0 0"/><path d="m244 120.5h16v16h-16zm0 0"/><path d="m260 104.5h16v16h-16zm0 0"/><path d="m276 120.5h16v16h-16zm0 0"/><path d="m292 104.5h16v16h-16zm0 0"/><path d="m308 120.5h16v16h-16zm0 0"/><path d="m324 104.5h16v16h-16zm0 0"/></g><path d="m485.265625 92.699219c-23.699219-7.894531-95.929687-22.421875-103.882813-24.007813-5.503906-3.007812-50.871093-27.574218-88.117187-39.992187-22.617187-7.535157-136.722656-24.773438-242.5625 35.929687l-31.199219 3.894532c-1.632812.199218-2.976562 1.402343-3.382812 3l-15.695313 47.175781c-.273437.570312-.425781 1.183593-.425781 1.800781 0 12.777344.992188 42.96875 10.207031 47.574219 8.425781 4.210937 50.960938 4.425781 57.800781 4.425781 2.207032 0 4-1.792969 4-4h6.082032c-1.363282-3.761719-2.082032-7.761719-2.082032-12 0-19.921875 8.152344-36 27.992188-36 19.921875 0 36 16.078125 36 36 0 4.238281-.71875 8.238281-2.078125 12h244.15625c-1.359375-3.761719-2.078125-7.761719-2.078125-12 0-19.921875 16.160156-36 36-36 19.921875 0 19.984375 16.078125 19.984375 36 0 4.238281-.71875 8.238281-2.082031 12h6.082031c0 2.207031 1.792969 4 4 4 52 0 68.015625-4.070312 68.015625-8 0-14.753906-1.929688-63.519531-26.734375-71.800781zm-385.265625-20.199219c4.351562-16.648438 21.207031-29.296875 33.023438-32.695312 75.367187-19.617188 141.328124-8.976563 157.710937-3.503907 30.425781 10.136719 66.410156 28.558594 80.824219 36.199219zm240 48h-16v16h-16v-16h-16v16h-16v-16h-16v16h-16v-16h-16v16h-16v-16h-16v16h-16v-16h-16v-16h16v16h16v-16h16v16h16v-16h16v16h16v-16h16v16h16v-16h16v16h16v-16h16zm0 0" fill="#ffce54"/><path d="m488.886719 112.5h14.601562c-3.96875-9.335938-9.734375-16.960938-18.222656-19.800781-3.707031-1.230469-8.671875-2.640625-14.304687-4.121094zm0 0" fill="#e6e9ed"/><path d="m380 76.5h-280c-2.207031 0-4-1.792969-4-4s1.792969-4 4-4h280c2.207031 0 4 1.792969 4 4s-1.792969 4-4 4zm0 0" fill="#ffce54"/><path d="m29.511719 108.195312c.464843-.191406.871093-.480468 1.230469-.824218.019531-.015625.050781-.023438.066406-.039063.007812-.007812.007812-.007812.007812-.007812l15.992188-15.886719c.367187-.371094.664062-.816406.863281-1.296875s.3125-1.007813.3125-1.527344c0-.050781-.023437-.089843-.03125-.144531-.015625-.472656-.097656-.9375-.273437-1.382812-.191407-.472657-.480469-.890626-.824219-1.25-.015625-.015626-.023438-.039063-.039063-.054688-.039062-.042969-.097656-.050781-.136718-.089844-.335938-.320312-.71875-.589844-1.160157-.785156-.496093-.199219-1.015625-.308594-1.535156-.308594l-32.199219-.097656-7.96875 23.960938c.0625 0 .113282.03125.167969.03125h24c.519531.007812 1.039063-.105469 1.527344-.296876zm0 0" fill="#ed5565"/><path d="m511.328125 148.5h-11.328125c-2.207031 0-4 1.792969-4 4s1.792969 4 4 4h11.824219c-.105469-2.441406-.257813-5.113281-.496094-8zm0 0" fill="#f6bb42"/><path d="m220.28125 24.476562h8v47.183594h-8zm0 0" fill="#ffce54"/><path d="m452 156.5c0 3.679688-.558594 7.28125-1.59375 10.71875-4.558594 14.640625-18.246094 25.28125-34.40625 25.28125-14.953125 0-27.671875-9.039062-33.199219-22-1.753906-4.230469-2.800781-9.039062-2.800781-14 0-19.921875 16.078125-36 36-36s36 16.078125 36 36zm0 0" fill="#ccd1d9"/><path d="m416 196.5c-22.054688 0-40-17.945312-40-40s17.945312-40 40-40 40 17.945312 40 40-17.945312 40-40 40zm0-72c-17.648438 0-32 14.351562-32 32s14.351562 32 32 32 32-14.351562 32-32-14.351562-32-32-32zm0 0" fill="#656d78"/><path d="m416.238281 160.5c-2.207031 0-4.039062-1.792969-4.039062-4s1.753906-4 3.953125-4h.085937c2.203125 0 4 1.792969 4 4s-1.789062 4-4 4zm0 0" fill="#aab2bd"/><path d="m416 148.5c-2.207031 0-4-1.792969-4-4v-8c0-2.207031 1.792969-4 4-4s4 1.792969 4 4v8c0 2.207031-1.792969 4-4 4zm0 0" fill="#aab2bd"/><path d="m416 180.5c-2.207031 0-4-1.792969-4-4v-8c0-2.207031 1.792969-4 4-4s4 1.792969 4 4v8c0 2.207031-1.792969 4-4 4zm0 0" fill="#aab2bd"/><path d="m407.511719 152.011719c-1.023438 0-2.046875-.390625-2.832031-1.167969l-5.65625-5.65625c-1.558594-1.558594-1.558594-4.09375 0-5.65625 1.5625-1.558594 4.097656-1.558594 5.65625 0l5.65625 5.65625c1.558593 1.558594 1.558593 4.097656 0 5.65625-.777344.785156-1.800782 1.167969-2.824219 1.167969zm0 0" fill="#aab2bd"/><path d="m430.144531 174.644531c-1.023437 0-2.046875-.390625-2.832031-1.167969l-5.65625-5.65625c-1.558594-1.558593-1.558594-4.097656 0-5.65625 1.558594-1.558593 4.097656-1.558593 5.65625 0l5.65625 5.65625c1.558594 1.558594 1.558594 4.09375 0 5.65625-.785156.777344-1.800781 1.167969-2.824219 1.167969zm0 0" fill="#aab2bd"/><path d="m404 160.5h-8c-2.207031 0-4-1.792969-4-4s1.792969-4 4-4h8c2.207031 0 4 1.792969 4 4s-1.792969 4-4 4zm0 0" fill="#aab2bd"/><path d="m436 160.5h-8c-2.207031 0-4-1.792969-4-4s1.792969-4 4-4h8c2.207031 0 4 1.792969 4 4s-1.792969 4-4 4zm0 0" fill="#aab2bd"/><path d="m401.855469 174.644531c-1.023438 0-2.046875-.390625-2.832031-1.167969-1.558594-1.5625-1.558594-4.097656 0-5.65625l5.65625-5.65625c1.558593-1.558593 4.097656-1.558593 5.65625 0 1.558593 1.558594 1.558593 4.097657 0 5.65625l-5.65625 5.65625c-.777344.777344-1.800782 1.167969-2.824219 1.167969zm0 0" fill="#aab2bd"/><path d="m424.488281 152.011719c-1.023437 0-2.046875-.390625-2.832031-1.167969-1.558594-1.558594-1.558594-4.097656 0-5.65625l5.65625-5.65625c1.558594-1.558594 4.09375-1.558594 5.65625 0 1.558594 1.5625 1.558594 4.097656 0 5.65625l-5.65625 5.65625c-.785156.785156-1.808594 1.167969-2.824219 1.167969zm0 0" fill="#aab2bd"/><path d="m140 156.5c0 3.679688-.558594 7.28125-1.59375 10.71875-4.558594 14.640625-18.246094 25.28125-34.40625 25.28125-14.953125 0-27.671875-9.039062-33.199219-22-1.753906-4.230469-2.800781-9.039062-2.800781-14 0-19.921875 16.078125-36 36-36s36 16.078125 36 36zm0 0" fill="#ccd1d9"/><path d="m104 196.5c-22.054688 0-40-17.945312-40-40s17.945312-40 40-40 40 17.945312 40 40-17.945312 40-40 40zm0-72c-17.648438 0-32 14.351562-32 32s14.351562 32 32 32 32-14.351562 32-32-14.351562-32-32-32zm0 0" fill="#656d78"/><path d="m104.238281 160.5c-2.207031 0-4.039062-1.792969-4.039062-4s1.753906-4 3.953125-4h.085937c2.203125 0 4 1.792969 4 4s-1.789062 4-4 4zm0 0" fill="#aab2bd"/><path d="m104 148.5c-2.207031 0-4-1.792969-4-4v-8c0-2.207031 1.792969-4 4-4s4 1.792969 4 4v8c0 2.207031-1.792969 4-4 4zm0 0" fill="#aab2bd"/><path d="m104 180.5c-2.207031 0-4-1.792969-4-4v-8c0-2.207031 1.792969-4 4-4s4 1.792969 4 4v8c0 2.207031-1.792969 4-4 4zm0 0" fill="#aab2bd"/><path d="m95.511719 152.011719c-1.023438 0-2.046875-.390625-2.832031-1.167969l-5.65625-5.65625c-1.558594-1.558594-1.558594-4.09375 0-5.65625 1.5625-1.558594 4.097656-1.558594 5.65625 0l5.65625 5.65625c1.558593 1.558594 1.558593 4.097656 0 5.65625-.777344.785156-1.800782 1.167969-2.824219 1.167969zm0 0" fill="#aab2bd"/><path d="m118.144531 174.644531c-1.023437 0-2.046875-.390625-2.832031-1.167969l-5.65625-5.65625c-1.558594-1.558593-1.558594-4.097656 0-5.65625 1.558594-1.558593 4.097656-1.558593 5.65625 0l5.65625 5.65625c1.558594 1.558594 1.558594 4.09375 0 5.65625-.785156.777344-1.800781 1.167969-2.824219 1.167969zm0 0" fill="#aab2bd"/><path d="m92 160.5h-8c-2.207031 0-4-1.792969-4-4s1.792969-4 4-4h8c2.207031 0 4 1.792969 4 4s-1.792969 4-4 4zm0 0" fill="#aab2bd"/><path d="m124 160.5h-8c-2.207031 0-4-1.792969-4-4s1.792969-4 4-4h8c2.207031 0 4 1.792969 4 4s-1.792969 4-4 4zm0 0" fill="#aab2bd"/><path d="m89.855469 174.644531c-1.023438 0-2.046875-.390625-2.832031-1.167969-1.558594-1.5625-1.558594-4.097656 0-5.65625l5.65625-5.65625c1.558593-1.558593 4.097656-1.558593 5.65625 0 1.558593 1.558594 1.558593 4.097657 0 5.65625l-5.65625 5.65625c-.777344.777344-1.800782 1.167969-2.824219 1.167969zm0 0" fill="#aab2bd"/><path d="m112.488281 152.011719c-1.023437 0-2.046875-.390625-2.832031-1.167969-1.558594-1.558594-1.558594-4.097656 0-5.65625l5.65625-5.65625c1.558594-1.558594 4.09375-1.558594 5.65625 0 1.558594 1.5625 1.558594 4.097656 0 5.65625l-5.65625 5.65625c-.785156.785156-1.808594 1.167969-2.824219 1.167969zm0 0" fill="#aab2bd"/></svg>